# File created by Blade
# Date/Time:  Tue Jan 27 19:38:14 2015
# Frame Rate: 120.000 fps
#------------------------------------------------------
:FULLY-SPECIFIED
:DEGREES
3174
root 4.485519 32.366468 1.601388 -2.615188 -13.822339 -0.247083
Spine 4.150570 -3.104334 -0.901398
Head 7.335729 4.962247 1.926254
LeftShoulder -11.356072 -1.516369 26.520680
LeftArm -2.053328 24.633573 -101.895950
LeftForeArm 3.274407 -0.000000 11.874485
LeftHand 10.768412 -0.000000 -1.454695
LeftHandThumb1 -26.253704 0.000000 33.147579
RightShoulder -20.186191 -15.442190 -29.330987
RightArm 45.372379 -60.559603 67.707014
RightForeArm -9.394922 -0.000000 73.770875
RightHand 22.454383 -0.000000 6.916709
RightHandThumb1 -24.326973 -0.000000 -32.862282
LeftUpLeg 7.914961 6.928215 -2.478944
LeftLeg 1.803776 -0.000000 -0.000000
LeftFoot -18.812269 16.773805 -23.039610
LeftToeBase 16.194015 -0.000000 -0.000000
RightUpLeg 2.478515 3.124127 3.973621
RightLeg 5.223818 -0.000000 -0.000000
RightFoot -10.111581 -10.594005 12.350891
RightToeBase 9.486566 -0.000000 -0.000000
3175
root 4.486472 32.366018 1.598811 -2.616523 -13.764518 -0.239616
Spine 4.161698 -3.102496 -0.898446
Head 7.316732 4.945418 1.982961
LeftShoulder -11.339942 -1.543903 26.529685
LeftArm -2.092851 24.672743 -101.879634
LeftForeArm 3.220025 -0.000000 11.921553
LeftHand 10.900422 0.000000 -1.208598
LeftHandThumb1 -26.253704 0.000000 33.147579
RightShoulder -20.085542 -15.270581 -29.363182
RightArm 45.394928 -60.689426 67.535741
RightForeArm -8.895891 -0.000000 73.829803
RightHand 22.492670 -0.000000 7.008696
RightHandThumb1 -24.326973 -0.000000 -32.862282
LeftUpLeg 7.891465 6.947877 -2.479001
LeftLeg 1.827730 -0.000000 -0.000000
LeftFoot -18.790878 16.707825 -23.024300
LeftToeBase 16.253878 -0.000000 -0.000000
RightUpLeg 2.458144 3.101490 3.967732
RightLeg 5.267205 -0.000000 -0.000000
RightFoot -10.157176 -10.629533 12.356423
RightToeBase 9.480803 -0.000000 -0.000000
3176
root 4.488409 32.366013 1.596900 -2.625216 -13.721099 -0.234805
Spine 4.187211 -3.092151 -0.882020
Head 7.300982 4.945567 2.037320
LeftShoulder -11.343913 -1.531362 26.533879
LeftArm -2.080121 24.730120 -101.853348
LeftForeArm 3.054580 -0.000000 11.976007
LeftHand 10.877841 -0.000000 -1.491901
LeftHandThumb1 -26.253704 0.000000 33.147579
RightShoulder -20.045196 -15.170186 -29.389590
RightArm 45.555591 -60.760745 67.281378
RightForeArm -8.490558 -0.000000 73.941725
RightHand 22.528959 -0.000000 7.140130
RightHandThumb1 -24.326973 -0.000000 -32.862282
LeftUpLeg 7.884847 6.960808 -2.482109
LeftLeg 1.848730 -0.000000 -0.000000
LeftFoot -18.787365 16.654564 -23.027661
LeftToeBase 16.291907 -0.000000 -0.000000
RightUpLeg 2.454080 3.090386 3.962591
RightLeg 5.289287 -0.000000 -0.000000
RightFoot -10.177656 -10.648235 12.379196
RightToeBase 9.507590 -0.000000 -0.000000
3177
root 4.490107 32.366245 1.594841 -2.635056 -13.679017 -0.228168
Spine 4.210504 -3.090608 -0.872248
Head 7.292982 4.961108 2.095519
LeftShoulder -11.338968 -1.545710 26.546521
LeftArm -2.097341 24.769233 -101.837009
LeftForeArm 2.957690 0.000000 12.017637
LeftHand 10.795029 -0.000000 -1.396941
LeftHandThumb1 -26.253704 0.000000 33.147579
RightShoulder -20.056543 -15.182723 -29.387327
RightArm 46.075905 -60.823614 66.715104
RightForeArm -8.185093 -0.000000 74.084518
RightHand 22.504966 -0.000000 7.109973
RightHandThumb1 -24.326973 -0.000000 -32.862282
LeftUpLeg 7.881962 6.942663 -2.490315
LeftLeg 1.852628 -0.000000 -0.000000
LeftFoot -18.767025 16.643031 -23.015823
LeftToeBase 16.275911 -0.000000 -0.000000
RightUpLeg 2.452292 3.070532 3.955858
RightLeg 5.307221 -0.000000 -0.000000
RightFoot -10.189891 -10.680224 12.372306
RightToeBase 9.522337 -0.000000 -0.000000
3178
root 4.491279 32.366709 1.592690 -2.636853 -13.638770 -0.229882
Spine 4.221254 -3.102717 -0.850649
Head 7.303388 4.993179 2.138341
LeftShoulder -11.330136 -1.554634 26.553837
LeftArm -2.123233 24.770357 -101.813684
LeftForeArm 2.890420 -0.000000 12.065952
LeftHand 10.750989 0.000000 -1.334587
LeftHandThumb1 -26.253704 0.000000 33.147579
RightShoulder -20.064737 -15.158201 -29.409063
RightArm 46.586003 -60.909724 66.161703
RightForeArm -8.066752 -0.000000 74.247186
RightHand 22.503518 -0.000000 6.977338
RightHandThumb1 -24.326973 -0.000000 -32.862282
LeftUpLeg 7.877545 6.934766 -2.487865
LeftLeg 1.847165 -0.000000 -0.000000
LeftFoot -18.748457 16.621381 -23.009584
LeftToeBase 16.276248 -0.000000 -0.000000
RightUpLeg 2.449926 3.050162 3.957547
RightLeg 5.315377 -0.000000 -0.000000
RightFoot -10.193031 -10.701261 12.367623
RightToeBase 9.538134 -0.000000 -0.000000
3179
root 4.492320 32.367363 1.591212 -2.633180 -13.609650 -0.230021
Spine 4.217928 -3.124511 -0.834486
Head 7.340892 5.042478 2.195269
LeftShoulder -11.338048 -1.550012 26.554103
LeftArm -2.147901 24.773109 -101.776532
LeftForeArm 2.905537 -0.000000 12.099450
LeftHand 10.802426 -0.000000 -0.957798
LeftHandThumb1 -26.253704 0.000000 33.147579
RightShoulder -20.048328 -15.044860 -29.460852
RightArm 46.919009 -61.017568 65.777444
RightForeArm -8.073985 0.000000 74.418860
RightHand 22.572946 -0.000000 6.898854
RightHandThumb1 -24.326973 -0.000000 -32.862282
LeftUpLeg 7.866692 6.934532 -2.484793
LeftLeg 1.842378 -0.000000 -0.000000
LeftFoot -18.718134 16.606169 -22.957077
LeftToeBase 16.329561 -0.000000 -0.000000
RightUpLeg 2.448311 3.017390 3.954702
RightLeg 5.308884 -0.000000 -0.000000
RightFoot -10.183184 -10.704429 12.363107
RightToeBase 9.490087 -0.000000 -0.000000
3180
root 4.492877 32.368623 1.589833 -2.622649 -13.579674 -0.235358
Spine 4.200744 -3.141383 -0.808644
Head 7.396363 5.069743 2.227946
LeftShoulder -11.326477 -1.533137 26.561434
LeftArm -2.158820 24.737066 -101.741739
LeftForeArm 2.906441 -0.000000 12.115653
LeftHand 10.848215 -0.000000 -1.038098
LeftHandThumb1 -26.253704 0.000000 33.147579
RightShoulder -20.054172 -14.995986 -29.503452
RightArm 47.332607 -61.115540 65.384847
RightForeArm -8.253157 0.000000 74.532255
RightHand 22.677362 -0.000000 6.727320
RightHandThumb1 -24.326973 -0.000000 -32.862282
LeftUpLeg 7.850646 6.909737 -2.483380
LeftLeg 1.842572 -0.000000 -0.000000
LeftFoot -18.708077 16.616577 -22.951148
LeftToeBase 16.285344 -0.000000 -0.000000
RightUpLeg 2.451508 2.972297 3.956031
RightLeg 5.282107 -0.000000 -0.000000
RightFoot -10.166509 -10.699130 12.372333
RightToeBase 9.591138 -0.000000 -0.000000
3181
root 4.493412 32.369755 1.588849 -2.603724 -13.558835 -0.238100
Spine 4.169473 -3.147516 -0.781560
Head 7.454120 5.091408 2.244707
LeftShoulder -11.308118 -1.515059 26.563875
LeftArm -2.160000 24.710892 -101.698781
LeftForeArm 2.904259 -0.000000 12.105278
LeftHand 10.903751 0.000000 -1.160427
LeftHandThumb1 -26.253704 0.000000 33.147579
RightShoulder -20.059592 -14.955230 -29.558692
RightArm 47.977877 -61.347623 64.748439
RightForeArm -9.060840 -0.000000 74.630451
RightHand 22.582090 -0.000000 5.125041
RightHandThumb1 -24.326973 -0.000000 -32.862282
LeftUpLeg 7.831526 6.852462 -2.490544
LeftLeg 1.836062 -0.000000 -0.000000
LeftFoot -18.707913 16.649877 -22.952175
LeftToeBase 16.267310 -0.000000 -0.000000
RightUpLeg 2.447344 2.944442 3.953779
RightLeg 5.252176 -0.000000 -0.000000
RightFoot -10.134919 -10.694821 12.356997
RightToeBase 9.423007 -0.000000 -0.000000
3182
root 4.493413 32.370433 1.589031 -2.593612 -13.551708 -0.243578
Spine 4.144701 -3.129395 -0.753812
Head 7.516130 5.080845 2.275418
LeftShoulder -11.280990 -1.499382 26.584990
LeftArm -2.161353 24.670983 -101.671590
LeftForeArm 2.878025 -0.000000 12.090267
LeftHand 10.861424 -0.000000 -1.501773
LeftHandThumb1 -26.253704 0.000000 33.147579
RightShoulder -20.042163 -14.880985 -29.608773
RightArm 48.377076 -61.496099 64.346024
RightForeArm -9.298645 -0.000000 74.763313
RightHand 22.431892 -0.000000 4.588544
RightHandThumb1 -24.326973 -0.000000 -32.862282
LeftUpLeg 7.832624 6.833373 -2.487698
LeftLeg 1.813784 -0.000000 -0.000000
LeftFoot -18.699368 16.670543 -22.949224
LeftToeBase 16.294041 -0.000000 -0.000000
RightUpLeg 2.456603 2.887063 3.952700
RightLeg 5.216215 -0.000000 -0.000000
RightFoot -10.115711 -10.637386 12.384267
RightToeBase 9.548333 -0.000000 -0.000000
3183
root 4.494304 32.371086 1.588075 -2.570528 -13.539549 -0.244416
Spine 4.104239 -3.123863 -0.735319
Head 7.580167 5.054413 2.313899
LeftShoulder -11.262722 -1.497705 26.598033
LeftArm -2.162167 24.669039 -101.644258
LeftForeArm 2.954914 -0.000000 12.042883
LeftHand 10.910837 -0.000000 -1.187272
LeftHandThumb1 -26.253704 0.000000 33.147579
RightShoulder -19.994151 -14.822816 -29.647533
RightArm 48.556444 -61.534669 64.170390
RightForeArm -9.503063 -0.000000 74.894517
RightHand 22.437221 -0.000000 4.804450
RightHandThumb1 -24.326973 -0.000000 -32.862282
LeftUpLeg 7.808743 6.773128 -2.502203
LeftLeg 1.816878 -0.000000 -0.000000
LeftFoot -18.717591 16.707554 -22.977614
LeftToeBase 16.281031 -0.000000 -0.000000
RightUpLeg 2.449146 2.839468 3.947607
RightLeg 5.179834 -0.000000 -0.000000
RightFoot -10.077795 -10.616546 12.351775
RightToeBase 9.451228 -0.000000 -0.000000
3184
root 4.494714 32.371288 1.586045 -2.534983 -13.541457 -0.249731
Spine 4.047174 -3.086504 -0.711147
Head 7.654597 4.988353 2.361767
LeftShoulder -11.236867 -1.494119 26.628155
LeftArm -2.143284 24.673675 -101.622250
LeftForeArm 2.880662 0.000000 11.983802
LeftHand 10.831582 -0.000000 -1.422531
LeftHandThumb1 -26.253704 0.000000 33.147579
RightShoulder -19.945456 -14.767906 -29.680584
RightArm 48.628723 -61.570389 64.083571
RightForeArm -9.722671 0.000000 75.021100
RightHand 22.424874 -0.000000 4.922554
RightHandThumb1 -24.326973 -0.000000 -32.862282
LeftUpLeg 7.782772 6.745386 -2.501883
LeftLeg 1.786437 -0.000000 -0.000000
LeftFoot -18.715119 16.727135 -22.986091
LeftToeBase 16.286949 -0.000000 -0.000000
RightUpLeg 2.428997 2.811050 3.947214
RightLeg 5.143259 -0.000000 -0.000000
RightFoot -10.050850 -10.597048 12.338344
RightToeBase 9.542422 -0.000000 -0.000000
